0
SECTION
2
HEADER
9
$INSUNITS
70
4
9
$ACADVER
1
AC1014
9
$HANDSEED
5
FFFF
0
ENDSEC
0
SECTION
2
TABLES
0
TABLE
2
VPORT
5
8
100
AcDbSymbolTable
0
ENDTAB
0
TABLE
2
LTYPE
5
5
100
AcDbSymbolTable
0
LTYPE
5
14
100
AcDbSymbolTableRecord
100
AcDbLinetypeTableRecord
2
BYBLOCK
70
0
0
LTYPE
5
15
100
AcDbSymbolTableRecord
100
AcDbLinetypeTableRecord
2
BYLAYER
70
0
0
ENDTAB
0
TABLE
2
LAYER
5
2
100
AcDbSymbolTable
70
2
0
LAYER
5
50
100
AcDbSymbolTableRecord
100
AcDbLayerTableRecord
2
0
70
0
6
CONTINUOUS
0
ENDTAB
0
TABLE
2
STYLE
5
3
100
AcDbSymbolTable
70
1
0
STYLE
5
11
100
AcDbSymbolTableRecord
100
AcDbTextStyleTableRecord
2
STANDARD
70
0
0
ENDTAB
0
TABLE
2
VIEW
5
6
100
AcDbSymbolTable
70
0
0
ENDTAB
0
TABLE
2
UCS
5
7
100
AcDbSymbolTable
70
0
0
ENDTAB
0
TABLE
2
APPID
5
9
100
AcDbSymbolTable
70
2
0
APPID
5
12
100
AcDbSymbolTableRecord
100
AcDbRegAppTableRecord
2
ACAD
70
0
0
ENDTAB
0
TABLE
2
DIMSTYLE
5
A
100
AcDbSymbolTable
70
1
0
ENDTAB
0
TABLE
2
BLOCK_RECORD
5
1
100
AcDbSymbolTable
70
1
0
BLOCK_RECORD
5
1F
100
AcDbSymbolTableRecord
100
AcDbBlockTableRecord
2
*MODEL_SPACE
0
BLOCK_RECORD
5
1B
100
AcDbSymbolTableRecord
100
AcDbBlockTableRecord
2
*PAPER_SPACE
0
ENDTAB
0
ENDSEC
0
SECTION
2
BLOCKS
0
BLOCK
5
20
100
AcDbEntity
100
AcDbBlockBegin
2
*MODEL_SPACE
0
ENDBLK
5
21
100
AcDbEntity
100
AcDbBlockEnd
0
BLOCK
5
1C
100
AcDbEntity
100
AcDbBlockBegin
2
*PAPER_SPACE
0
ENDBLK
5
1D
100
AcDbEntity
100
AcDbBlockEnd
0
ENDSEC
0
SECTION
2
ENTITIES
0
LWPOLYLINE
5
100
100
AcDbEntity
8
0
100
AcDbPolyline
90
8
70
1
43
0.0
10
-193.96245190130691
20
49.362378227123493
42
-0.41419226145337773
10
-194.52712776222015
20
49.787942333790866
10
-196.34989775182959
20
62.759552093522743
42
-0.41419964179832253
10
-195.92436223664109
20
63.324260656667235
10
-182.95260764070119
20
65.147679698801511
42
-0.41423243195593901
10
-182.38787106190884
20
64.722115592288986
10
-180.56510107301423
20
51.748915124614776
42
-0.41422991473409815
10
-180.99069730608187
20
51.184206561315435
0
LWPOLYLINE
5
101
100
AcDbEntity
8
0
100
AcDbPolyline
90
8
70
1
43
0.0
10
-83.429260090250352
20
30.995699607130895
42
-0.41425645050079718
10
-83.854861238631869
20
31.56044457257947
10
-82.031154206396351
20
44.533654499941839
42
-0.41420550010285867
10
-81.466433056623742
20
44.959185062656317
10
-68.49461675038485
20
43.136038060486811
42
-0.41418426547714637
10
-68.069065600116645
20
42.571364522008402
10
-69.890901203728049
20
29.599464595749673
42
-0.41420803439915005
10
-70.455572355387332
20
29.173862606065029
0
LWPOLYLINE
5
102
100
AcDbEntity
8
0
100
AcDbPolyline
90
8
70
1
43
0.0
10
-175.09835463180065
20
52.012185722070292
42
-0.41425797243398038
10
-175.66313396229737
20
52.437744318939245
10
-177.48590546003265
20
65.411049096917267
42
-0.41420145741560388
10
-177.06035677291598
20
65.975750478489729
10
-164.08755861339279
20
67.798997536613697
42
-0.41420000016699082
10
-163.52283999110031
20
67.373474651928163
10
-161.69913277989363
20
54.40176059434144
42
-0.41419482041414224
10
-162.12462075880603
20
53.837023500585545
0
LWPOLYLINE
5
103
100
AcDbEntity
8
0
100
AcDbPolyline
90
8
70
1
43
0.0
10
-109.07435217231635
20
53.837958509551235
42
-0.41420469273555161
10
-109.49989847139138
20
54.402666580927658
10
-107.67713335413491
20
67.374615951333098
42
-0.4142265757769536
10
-107.11240117663516
20
67.800174152833378
10
-94.140640822833447
20
65.976847872416599
42
-0.41420113134242159
10
-93.715101666918684
20
65.412139801291914
10
-95.537866784178874
20
52.440377573069121
42
-0.41422184980405879
10
-96.102591818518363
20
52.014819371317088
0
LWPOLYLINE
5
104
100
AcDbEntity
8
0
100
AcDbPolyline
90
8
70
1
43
0.0
10
-113.00464278426284
20
68.628240416253917
42
-0.41420116635261622
10
-112.579094028013
20
68.063539526728448
10
-114.40186516540857
20
55.090143742001068
42
-0.41426409187035268
10
-114.96665441734268
20
54.664586038974022
10
-127.93845381655659
20
56.489414949624475
42
-0.41414726520116407
10
-128.36394185560624
20
57.054080115561014
10
-126.54210643224314
20
70.025885186995168
42
-0.41424172885973226
10
-125.97737789750923
20
70.451478613611144
0
CIRCLE
5
105
100
AcDbEntity
8
0
100
AcDbCircle
10
-250.60699999999969
20
-6.6000000000000068
30
0
40
1.6000000000000014
210
0
220
-0
230
1
0
CIRCLE
5
106
100
AcDbEntity
8
0
100
AcDbCircle
10
-171.4284143714423
20
99.980524733842898
30
0
40
1.6000000000000156
210
0
220
0
230
1
0
CIRCLE
5
107
100
AcDbEntity
8
0
100
AcDbCircle
10
-30.000000000000075
20
92.986610468926244
30
0
40
1.6000000000000014
210
0
220
-0
230
1
0
CIRCLE
5
108
100
AcDbEntity
8
0
100
AcDbCircle
10
-10
20
-6.6000000000000236
30
0
40
1.6000000000000003
210
0
220
-0
230
1
0
CIRCLE
5
109
100
AcDbEntity
8
0
100
AcDbCircle
10
-99.72114899206538
20
99.976709784556746
30
0
40
1.6000000000000014
210
0
220
-0
230
1
0
CIRCLE
5
110
100
AcDbEntity
8
0
100
AcDbCircle
10
-250.60699999999966
20
92.986610468926244
30
0
40
1.6000000000000014
210
-0
220
0
230
1
0
CIRCLE
5
111
100
AcDbEntity
8
0
100
AcDbCircle
10
-290.20699999999971
20
17.999999999999989
30
0
40
1.6000000000000014
210
0
220
-0
230
1
0
CIRCLE
5
112
100
AcDbEntity
8
0
100
AcDbCircle
10
-170.42621257257298
20
0.46237683305127336
30
0
40
1.6000000000000045
210
0
220
0
230
1
0
CIRCLE
5
113
100
AcDbEntity
8
0
100
AcDbCircle
10
9.5999999999999712
20
17.999999999999989
30
0
40
1.6000000000000025
210
0
220
-0
230
1
0
CIRCLE
5
114
100
AcDbEntity
8
0
100
AcDbCircle
10
9.5999999999999694
20
66.886610468926307
30
0
40
1.6000000000000014
210
0
220
-0
230
1
0
CIRCLE
5
115
100
AcDbEntity
8
0
100
AcDbCircle
10
-100.72242830804265
20
0.45294452172687294
30
0
40
1.5999999999999928
210
0
220
-0
230
1
0
CIRCLE
5
116
100
AcDbEntity
8
0
100
AcDbCircle
10
-290.20699999999971
20
66.886610468926307
30
0
40
1.6000000000000014
210
0
220
-0
230
1
0
CIRCLE
5
117
100
AcDbEntity
8
0
100
AcDbCircle
10
-279.99899999999968
20
14.543999999999981
30
0
40
1.4999999999999858
210
0
220
0
230
1
0
CIRCLE
5
118
100
AcDbEntity
8
0
100
AcDbCircle
10
-279.99899999999968
20
8.7939999999999863
30
0
40
1.4999999999999858
210
0
220
0
230
1
0
CIRCLE
5
119
100
AcDbEntity
8
0
100
AcDbCircle
10
-279.99899999999968
20
20.29399999999999
30
0
40
1.4999999999999858
210
0
220
0
230
1
0
LWPOLYLINE
5
120
100
AcDbEntity
8
0
100
AcDbPolyline
90
8
70
1
43
0.0
10
-240.62700000000021
20
26.805510468926236
42
-0.41421356237309503
10
-241.12700000000021
20
27.305510468926244
10
-241.12700000000021
20
40.407610468926229
42
-0.41421356237309503
10
-240.62700000000021
20
40.907610468926229
10
-227.52600000000007
20
40.907610468926237
42
-0.41421356237309503
10
-227.02600000000007
20
40.407610468926229
10
-227.02600000000012
20
27.305510468926244
42
-0.41421356237309503
10
-227.52600000000012
20
26.805510468926244
0
LWPOLYLINE
5
121
100
AcDbEntity
8
0
100
AcDbPolyline
90
8
70
1
43
0.0
10
-45.363000000000007
20
65.13540046892615
42
-0.41421356237309503
10
-45.863000000000007
20
65.63540046892615
10
-45.863000000000007
20
78.734800468926153
42
-0.41421356237309503
10
-45.363000000000007
20
79.234800468926153
10
-32.264000000000017
20
79.234800468926153
42
-0.41421356237309503
10
-31.764000000000017
20
78.734800468926153
10
-31.764000000000017
20
65.63540046892615
42
-0.41421356237309503
10
-32.264000000000017
20
65.135400468926164
0
LWPOLYLINE
5
122
100
AcDbEntity
8
0
100
AcDbPolyline
90
8
70
1
43
0.0
10
-22.410000000000014
20
26.653700468926147
42
-0.41421356237309503
10
-22.910000000000011
20
27.153700468926143
10
-22.910000000000011
20
40.25580046892614
42
-0.41421356237309503
10
-22.410000000000014
20
40.75580046892614
10
-9.3080000000000318
20
40.755800468926147
42
-0.41421356237309437
10
-8.8080000000000318
20
40.255800468926147
10
-8.8080000000000354
20
27.153700468926143
42
-0.41421356237309503
10
-9.3080000000000318
20
26.653700468926147
0
LWPOLYLINE
5
123
100
AcDbEntity
8
0
100
AcDbPolyline
90
8
70
1
43
0.0
10
-181.87937387348822
20
31.822629675226175
42
-0.41424431252552824
10
-182.44410001125868
20
32.248231463922856
10
-184.26594207537616
20
45.221580966831432
42
-0.41417990125233894
10
-183.84038988896765
20
45.786247127347295
10
-170.86859890505932
20
47.60939057054479
42
-0.41422650744716372
10
-170.30387276438921
20
47.183824495103572
10
-168.48109498281042
20
34.210474992805089
42
-0.41420352909710001
10
-168.90664717211851
20
33.645773119033777
0
LWPOLYLINE
5
124
100
AcDbEntity
8
0
100
AcDbPolyline
90
8
70
1
43
0.0
10
-21.552000000000007
20
65.13540046892615
42
-0.41421356237309503
10
-22.052000000000007
20
65.63540046892615
10
-22.052000000000007
20
78.734800468926153
42
-0.41421356237309503
10
-21.552000000000007
20
79.234800468926153
10
-8.4520000000000195
20
79.234800468926153
42
-0.41421356237309437
10
-7.9520000000000213
20
78.734800468926153
10
-7.9520000000000222
20
65.63540046892615
42
-0.41421356237309503
10
-8.4520000000000195
20
65.135400468926164
0
LWPOLYLINE
5
125
100
AcDbEntity
8
0
100
AcDbPolyline
90
8
70
1
43
0.0
10
-121.15835172939603
20
36.298258447300221
42
-0.41420498386104287
10
-121.58389795931586
20
36.86296701082702
10
-119.76112539699753
20
49.83487579351462
42
-0.4141873159705744
10
-119.19645916568663
20
50.260442758150873
10
-106.22277143395108
20
48.438605757524165
42
-0.4142771671072904
10
-105.79717520971145
20
47.873825772447319
10
-107.6218192017835
20
34.900606988815227
42
-0.41418478454619961
10
-108.18653542741419
20
34.475111445729041
0
LWPOLYLINE
5
126
100
AcDbEntity
8
0
100
AcDbPolyline
90
8
70
1
43
0.0
10
-41.650000000000027
20
7.4135004689261583
42
-0.41421356237309503
10
-42.150000000000027
20
7.9135004689261557
10
-42.150000000000027
20
21.015600468926159
42
-0.41421356237309503
10
-41.650000000000027
20
21.515600468926159
10
-28.550000000000022
20
21.515600468926159
42
-0.41421356237309503
10
-28.050000000000026
20
21.015600468926159
10
-28.050000000000026
20
7.9135004689261557
42
-0.41421356237309437
10
-28.550000000000022
20
7.4135004689261566
0
LWPOLYLINE
5
127
100
AcDbEntity
8
0
100
AcDbPolyline
90
8
70
1
43
0.0
10
-50.413000000000032
20
45.895200468926149
42
-0.41421356237309503
10
-50.913000000000032
20
46.395200468926141
10
-50.913000000000032
20
59.495900468926152
42
-0.41421356237309503
10
-50.413000000000032
20
59.995900468926145
10
-37.313000000000045
20
59.995900468926145
42
-0.41421356237309503
10
-36.813000000000045
20
59.495900468926152
10
-36.813000000000045
20
46.395200468926149
42
-0.41421356237309503
10
-37.313000000000045
20
45.895200468926156
0
LWPOLYLINE
5
128
100
AcDbEntity
8
0
100
AcDbPolyline
90
8
70
1
43
0.0
10
-272.15200000000004
20
65.287210468926162
42
-0.41421356237309503
10
-272.65200000000004
20
65.787210468926176
10
-272.65200000000004
20
78.886610468926207
42
-0.41421356237309503
10
-272.15200000000004
20
79.386610468926207
10
-259.05300000000005
20
79.386610468926207
42
-0.41421356237309503
10
-258.55300000000005
20
78.886610468926207
10
-258.55300000000005
20
65.787210468926176
42
-0.41421356237309503
10
-259.05300000000005
20
65.287210468926176
0
LWPOLYLINE
5
129
100
AcDbEntity
8
0
100
AcDbPolyline
90
8
70
1
43
0.0
10
-200.74343008214925
20
29.171235936409428
42
-0.41420763818588036
10
-201.3081607701742
20
29.596758129439927
10
-203.13186709568117
20
42.568653029970562
42
-0.41419961046335346
10
-202.70636989600507
20
43.133390416328666
10
-189.7336356629161
20
44.957844917747913
42
-0.41425143528178837
10
-189.1688656912778
20
44.532287011736223
10
-187.34609507966422
20
31.559362826143325
42
-0.41419556626421727
10
-187.77163156295362
20
30.99466115276638
0
LWPOLYLINE
5
130
100
AcDbEntity
8
0
100
AcDbPolyline
90
8
70
1
43
0.0
10
-155.64736731035688
20
16.271571081365511
42
-0.41424939516006898
10
-156.21213256455241
20
16.697131156175164
10
-158.03490450522349
20
29.670345515227631
42
-0.41420382016470136
10
-157.60935238505002
20
30.235047881052822
10
-144.63655644059287
20
32.058201056051274
42
-0.41419851103856653
10
-144.07184118203918
20
31.632676694369533
10
-142.24813352743877
20
18.660772340089384
42
-0.41420252373973787
10
-142.67363565197044
20
18.096034261136289
0
LWPOLYLINE
5
131
100
AcDbEntity
8
0
100
AcDbPolyline
90
8
70
1
43
0.0
10
-212.82738481359365
20
46.710923620529165
42
-0.41423703677270635
10
-213.39210499369892
20
47.13651872289293
10
-215.2139343998835
20
60.108374522008425
42
-0.41418426547716186
10
-214.78838324961529
20
60.673048060486849
10
-201.81656074003195
20
62.496195934516422
42
-0.41420142271381338
10
-201.25184055926388
20
62.070672264611119
10
-199.42813973081917
20
49.098816464297165
42
-0.4142315251931673
10
-199.8536908817502
20
48.534071493360301
0
LWPOLYLINE
5
132
100
AcDbEntity
8
0
100
AcDbPolyline
90
8
70
1
43
0.0
10
-90.21030810291461
20
51.185492192254941
42
-0.41422719129513513
10
-90.63589860960974
20
51.750200954825601
10
-88.813127554837493
20
64.723221865851841
42
-0.41422188275064042
10
-88.248407963361501
20
65.148787356386876
10
-75.274686936671912
20
63.32554210427692
42
-0.41422945361428343
10
-74.849139287694456
20
62.760797625469991
10
-76.672846056085262
20
49.788899574737265
42
-0.41417572251798895
10
-77.237522789843595
20
49.363369800438491
0
LWPOLYLINE
5
133
100
AcDbEntity
8
0
100
AcDbPolyline
90
20
70
1
43
0.0
10
-176.65767824225011
20
70.051966680256569
10
-174.66034214667772
20
70.332141208651194
42
0.20356626006044093
10
-173.56287908949798
20
70.991499734611267
42
-0.20349213363735491
10
-172.53287016851482
20
71.610531220492817
10
-155.84136777695758
20
73.956762709608938
42
-0.20352501698444994
10
-154.68046405583641
20
73.645554515115762
42
0.20343670031828814
10
-153.44460448212433
20
73.314027910632063
10
-151.44954462792222
20
73.593772252326488
42
0.2036639689103498
10
-150.35168458149545
20
74.25356822031813
42
-0.20364811674686675
10
-149.3209621244545
20
74.873058303486047
10
-148.26971338777352
20
75.02052810896592
42
0.41427854098630651
10
-147.8440372218314
20
75.585249920684547
10
-149.66686788711553
20
88.558503899012322
42
0.41423439823792829
10
-150.23160949982105
20
88.984065269043583
10
-182.06900007894018
20
84.508385182127483
42
0.41420936749925408
10
-182.494527223202
20
83.943655611104191
10
-180.67116431787247
20
70.971962461427239
42
0.41426843756321513
10
-180.10634098718293
20
70.546441273823262
10
-179.05459958609902
20
70.69447999354567
42
-0.20355138967482503
10
-177.89351476593836
20
70.383393779559484
42
0.2034284027754599
0
LWPOLYLINE
5
134
100
AcDbEntity
8
0
100
AcDbPolyline
90
8
70
1
43
0.0
10
-83.802186851581496
20
83.256499120554466
10
-85.626824817129574
20
70.284726753173373
42
0.41424548001265854
10
-85.20129058649816
20
69.719947942695399
10
-72.228562558746162
20
67.896617169839274
42
0.41420265439186366
10
-71.663840295819938
20
68.322140547099494
10
-69.840138042057049
20
81.294006485601074
42
0.41422363027893266
10
-70.265675846819377
20
81.858749580864043
10
-83.2374681627862
20
83.681986782599708
42
0.41418248558845594
0
LWPOLYLINE
5
135
100
AcDbEntity
8
0
100
AcDbPolyline
90
8
70
1
43
0.0
10
-63.167128108094239
20
41.882121142509348
10
-64.989898719711135
20
28.909196956893851
42
0.4142245722312683
10
-64.56431320175183
20
28.344488393266833
10
-51.59252708705128
20
26.522374918466515
42
0.41417863256614468
10
-51.027845433696186
20
26.947904001747087
10
-49.204139108067736
20
39.919798903142237
42
0.41422861386781507
10
-49.629685337473823
20
40.484543182449457
10
-62.602407166185927
20
42.307685941470119
42
0.41422243140927711
0
LWPOLYLINE
5
136
100
AcDbEntity
8
0
100
AcDbPolyline
90
8
70
1
43
0.0
10
-214.65504456454528
20
21.687699880694989
10
-212.80956806999572
20
8.7190511743703514
42
0.41421922921927684
10
-212.24410360578071
20
8.2944812583350753
10
-199.27458909103447
20
10.14033697341026
42
0.4142286138678109
10
-198.85003237345398
20
10.705825512577256
10
-200.6964445779688
20
23.674472580725965
42
0.41420142271383603
10
-201.26190897913222
20
24.099006781036501
10
-214.23048778391322
20
22.253152704137232
42
0.41420498386102733
0
LWPOLYLINE
5
137
100
AcDbEntity
8
0
100
AcDbPolyline
90
8
70
1
43
0.0
10
-165.40190025576138
20
47.872615270531249
10
-163.57912769306836
20
34.899396484362633
42
0.4142266080337616
10
-163.01440095944287
20
34.473830994030365
10
-150.04071056993578
20
36.297259083610761
42
0.41424602863922316
10
-149.6151748499417
20
36.862037601045571
10
-151.4398188423288
20
49.833946386102646
42
0.41415791539218483
10
-152.0044955705763
20
50.259440446424136
10
-164.97631453038932
20
48.437322357955281
42
0.41422369899115752
0
LWPOLYLINE
5
138
100
AcDbEntity
8
0
100
AcDbPolyline
90
8
70
1
43
0.0
10
-248.84300000000007
20
78.886610468926207
10
-248.84300000000007
20
65.787210468926176
42
0.41421356237309503
10
-248.34300000000007
20
65.287210468926176
10
-235.2410000000001
20
65.287210468926176
42
0.41421356237309503
10
-234.7410000000001
20
65.787210468926176
10
-234.7410000000001
20
78.886610468926207
42
0.41421356237309503
10
-235.2410000000001
20
79.386610468926207
10
-248.34300000000007
20
79.386610468926207
42
0.41421356237309503
0
LWPOLYLINE
5
139
100
AcDbEntity
8
0
100
AcDbPolyline
90
8
70
1
43
0.0
10
-176.89889795931589
20
27.018843927025387
10
-175.07613284202537
20
14.046988127481981
42
0.41422214093718263
10
-174.51140773852927
20
13.621429433572672
10
-161.539648270604
20
15.44456844730024
42
0.41420498386104726
10
-161.11410204068417
20
16.009277010827041
10
-162.93686715797466
20
28.981132810370461
42
0.41422214093717752
10
-163.50159226147076
20
29.40669150427976
10
-176.47335172939606
20
27.58355249055219
42
0.41420498386104726
0
LWPOLYLINE
5
140
100
AcDbEntity
8
0
100
AcDbPolyline
90
8
70
1
43
0.0
10
-233.69800000000009
20
21.167410468926249
10
-233.69800000000009
20
8.0653104689261408
42
0.41421356237309503
10
-233.19800000000009
20
7.5653104689261399
10
-220.09600000000009
20
7.5653104689261399
42
0.41421356237309437
10
-219.59600000000009
20
8.065310468926139
10
-219.59600000000006
20
21.167410468926239
42
0.41421356237309503
10
-220.09600000000006
20
21.667410468926235
10
-233.19800000000009
20
21.667410468926249
42
0.41421356237309503
0
LWPOLYLINE
5
141
100
AcDbEntity
8
0
100
AcDbPolyline
90
8
70
1
43
0.0
10
-234.2690000000002
20
59.647710468926149
10
-234.2690000000002
20
46.547010468926231
42
0.41421356237309503
10
-233.7690000000002
20
46.047010468926231
10
-220.66800000000012
20
46.047010468926246
42
0.41421356237309503
10
-220.16800000000012
20
46.547010468926246
10
-220.16800000000006
20
59.647710468926157
42
0.41421356237309503
10
-220.66800000000006
20
60.147710468926157
10
-233.7690000000002
20
60.147710468926149
42
0.41421356237309503
0
LWPOLYLINE
5
142
100
AcDbEntity
8
0
100
AcDbPolyline
90
8
70
1
43
0.0
10
-100.89518219744272
20
47.185180786717211
10
-102.7198334630004
20
34.211816716742362
42
0.41423874598258187
10
-102.29430162600218
20
33.647046279813651
10
-89.321571821208124
20
31.82362168585794
42
0.41420880346544664
10
-88.756845087106782
20
32.249151463680882
10
-86.93312953997264
20
45.222421963035309
42
0.4142133373255607
10
-87.358657806513918
20
45.787156688542929
10
-100.33045189288445
20
47.610674853119079
42
0.41419336309529764
0
LWPOLYLINE
5
143
100
AcDbEntity
8
0
100
AcDbPolyline
90
8
70
1
43
0.0
10
-271.79800000000012
20
21.166010468926252
10
-271.79800000000012
20
8.0653104689261408
42
0.41421356237309503
10
-271.29800000000012
20
7.5653104689261399
10
-258.19800000000026
20
7.5653104689261399
42
0.41421356237309437
10
-257.69800000000026
20
8.065310468926139
10
-257.69800000000021
20
21.166010468926252
42
0.41421356237309503
10
-258.19800000000021
20
21.666010468926249
10
-271.29800000000012
20
21.666010468926249
42
0.41421356237309503
0
LWPOLYLINE
5
144
100
AcDbEntity
8
0
100
AcDbPolyline
90
8
70
1
43
0.0
10
-252.74600000000009
20
21.166010468926252
10
-252.74600000000009
20
8.0653104689261408
42
0.41421356237309503
10
-252.24600000000009
20
7.5653104689261399
10
-239.1460000000001
20
7.5653104689261399
42
0.41421356237309437
10
-238.6460000000001
20
8.065310468926139
10
-238.64600000000007
20
21.166010468926252
42
0.41421356237309503
10
-239.14600000000007
20
21.666010468926249
10
-252.24600000000009
20
21.666010468926249
42
0.41421356237309503
0
LWPOLYLINE
5
145
100
AcDbEntity
8
0
100
AcDbPolyline
90
8
70
1
43
0.0
10
-206.07590443609953
20
80.630048237277009
10
-204.25313338119582
20
67.656933753905903
42
0.4142511756289855
10
-203.6883646943291
20
67.231374663619988
10
-190.71463215022817
20
69.055931539764401
42
0.41420074353339431
10
-190.28913359672944
20
69.620669618649785
10
-192.11284036501795
20
82.592474097244832
42
0.41420029144339637
10
-192.67755905653752
20
83.017997474332475
10
-205.65035588725368
20
81.194750602964092
42
0.41420203955410118
0
LWPOLYLINE
5
146
100
AcDbEntity
8
0
100
AcDbPolyline
90
8
70
1
43
0.0
10
-195.75622855594196
20
24.378863075394971
10
-193.94049208799532
20
11.404660842687038
42
0.41422359502309158
10
-193.37600131576036
20
10.978788450055559
10
-180.40242786143546
20
12.794890016733254
42
0.41422453737743392
10
-179.97657502790605
20
13.359396969397801
10
-181.79324725707474
20
26.333506070517419
42
0.41420342582768022
10
-182.35773447495671
20
26.759342748858352
10
-195.33037216805957
20
24.943334313768979
42
0.41420269142045518
0
LWPOLYLINE
5
147
100
AcDbEntity
8
0
100
AcDbPolyline
90
8
70
1
43
0.0
10
-221.99494242150183
20
39.918596286597733
10
-220.17310150571825
20
26.945629247765108
42
0.41424314877206247
10
-219.60837564421962
20
26.520029426373544
10
-206.6356786905499
20
28.343168689539286
42
0.41422424519665413
10
-206.21013142293572
20
28.907905583745553
10
-208.03384377207223
20
41.881246905364918
42
0.41421699132793416
10
-208.59858392455919
20
42.306775298958065
10
-221.56940944487599
20
40.483261753005593
42
0.41416986522479959
0
LWPOLYLINE
5
148
100
AcDbEntity
8
0
100
AcDbPolyline
90
8
70
1
43
0.0
10
-117.70890981905421
20
30.297437610180292
10
-119.52320769801401
20
17.32299496663224
42
0.4142245373774287
10
-119.09725155656739
20
16.758565962243249
10
-106.12331397480988
20
14.944834357455889
42
0.41420258745392968
10
-105.55890611966669
20
15.370774538257184
10
-103.74460824070681
20
28.345217181805261
42
0.41422453737743259
10
-104.1705643821534
20
28.909646186194259
10
-117.14450196391101
20
30.723377790981591
42
0.41420258745393096
0
LWPOLYLINE
5
149
100
AcDbEntity
8
0
100
AcDbPolyline
90
8
70
1
43
0.0
10
-253.31900000000022
20
59.647710468926149
10
-253.31900000000022
20
46.547010468926231
42
0.41421356237309503
10
-252.81900000000022
20
46.047010468926231
10
-239.71800000000013
20
46.047010468926217
42
0.41421356237309503
10
-239.21800000000013
20
46.547010468926217
10
-239.21800000000007
20
59.647710468926157
42
0.41421356237309503
10
-239.71800000000007
20
60.147710468926157
10
-252.81900000000022
20
60.147710468926149
42
0.41421356237309503
0
LWPOLYLINE
5
150
100
AcDbEntity
8
0
100
AcDbPolyline
90
8
70
1
43
0.0
10
-267.32100000000008
20
40.407610468926229
10
-267.32100000000008
20
27.305510468926244
42
0.41421356237309503
10
-266.82100000000003
20
26.805510468926244
10
-253.71900000000025
20
26.805510468926244
42
0.41421356237309503
10
-253.21900000000025
20
27.305510468926244
10
-253.21900000000025
20
40.407610468926229
42
0.41421356237309503
10
-253.71900000000025
20
40.907610468926229
10
-266.82100000000003
20
40.907610468926229
42
0.41421356237309503
0
LWPOLYLINE
5
151
100
AcDbEntity
8
0
100
AcDbPolyline
90
8
70
1
43
0.0
10
-79.968286467171851
20
25.005821418452932
10
-81.789309496928055
20
12.032884548030049
42
0.41417306876178167
10
-81.363736374765921
20
11.468244494734792
10
-68.391791951080364
20
9.6455319553031771
42
0.41420971000773621
10
-67.827084356804491
20
10.071088950967866
10
-66.004189842193625
20
23.043090223169564
42
0.41420252373973993
10
-66.429727261941736
20
23.607801707198991
10
-79.403543170481953
20
25.431449844851798
42
0.41426894869577824
0
LWPOLYLINE
5
152
100
AcDbEntity
8
0
100
AcDbPolyline
90
8
70
1
43
0.0
10
-23.100000000000016
20
21.015600468926159
10
-23.100000000000016
20
7.9135004689261557
42
0.41421356237309503
10
-22.600000000000016
20
7.4135004689261557
10
-9.5000000000000124
20
7.4135004689261397
42
0.4142135623730957
10
-9.0000000000000107
20
7.9135004689261397
10
-9.0000000000000107
20
21.015600468926159
42
0.41421356237309437
10
-9.5000000000000107
20
21.515600468926159
10
-22.600000000000016
20
21.515600468926159
42
0.41421356237309503
0
LWPOLYLINE
5
153
100
AcDbEntity
8
0
100
AcDbPolyline
90
8
70
1
43
0.0
10
-98.834522677341212
20
27.653857142668095
10
-100.65503968754564
20
14.681690161965806
42
0.41420789554961751
10
-100.22939070226315
20
14.11705464463113
10
-87.256348326644684
20
12.296158837440531
42
0.41423994811539799
10
-86.69169697047812
20
12.721851084067834
10
-84.872115671032176
20
25.694017902322244
42
0.41418426547715259
10
-85.297764648260568
20
26.258617702832968
10
-98.269871313120518
20
28.079513672471439
42
0.41422214093718679
0
LWPOLYLINE
5
154
100
AcDbEntity
8
0
100
AcDbPolyline
90
8
70
1
43
0.0
10
-24.719000000000008
20
59.495900468926152
10
-24.719000000000008
20
46.395200468926141
42
0.41421356237309503
10
-24.219000000000008
20
45.895200468926149
10
-11.119000000000023
20
45.895200468926156
42
0.41421356237309503
10
-10.619000000000023
20
46.395200468926149
10
-10.619000000000021
20
59.495900468926152
42
0.41421356237309503
10
-11.119000000000021
20
59.995900468926145
10
-24.219000000000008
20
59.995900468926145
42
0.41421356237309503
0
LWPOLYLINE
5
155
100
AcDbEntity
8
0
100
AcDbPolyline
90
8
70
1
43
0.0
10
-44.244000000000021
20
40.25580046892614
10
-44.244000000000021
20
27.153700468926143
42
0.41421356237309503
10
-43.744000000000014
20
26.653700468926147
10
-30.645000000000024
20
26.653700468926147
42
0.41421356237309503
10
-30.145000000000024
20
27.153700468926143
10
-30.145000000000024
20
40.255800468926147
42
0.41421356237309503
10
-30.645000000000024
20
40.755800468926147
10
-43.744000000000021
20
40.75580046892614
42
0.41421356237309503
0
LWPOLYLINE
5
156
100
AcDbEntity
8
0
100
AcDbPolyline
90
8
70
1
43
0.0
10
-69.947187364223907
20
62.071992261969655
10
-71.771824443042249
20
49.100132627422639
42
0.4142493320774645
10
-71.346283138743729
20
48.535353325156329
10
-58.373555111167768
20
46.712209694968124
42
0.41419763721060721
10
-57.808840060295339
20
47.137732579443473
10
-55.985138692914461
20
60.109311499775693
42
0.4142203604265805
10
-56.410669285167998
20
60.674055087638067
10
-69.382461601306488
20
62.497479432041068
42
0.41418692058704232
0
LWPOLYLINE
5
157
100
AcDbEntity
8
0
100
AcDbPolyline
90
8
70
1
43
0.0
10
-274.75099999999986
20
59.647710468926149
10
-274.75099999999981
20
46.547010468926231
42
0.41421356237309503
10
-274.25099999999981
20
46.047010468926231
10
-261.14900000000006
20
46.047010468926246
42
0.41421356237309503
10
-260.64900000000006
20
46.547010468926246
10
-260.64900000000006
20
59.647710468926157
42
0.41421356237309503
10
-261.14900000000006
20
60.147710468926157
10
-274.25099999999986
20
60.147710468926149
42
0.41421356237309503
0
LWPOLYLINE
5
158
100
AcDbEntity
8
0
100
AcDbPolyline
90
8
70
1
43
0.0
10
-61.102126725555344
20
22.354166338725484
10
-62.924897959315906
20
9.3822670108270252
42
0.41420498386103599
10
-62.499351729396082
20
8.8175584473002218
10
-49.527534097660805
20
6.9944112588364806
42
0.41418391046889685
10
-48.962818079856596
20
7.4199053242922268
10
-47.138175417561484
20
20.392833938954958
42
0.41427182614969915
10
-47.563760927706824
20
20.957613926200356
10
-60.537449987976657
20
22.77973182789983
42
0.41419353069170783
0
SPLINE
5
159
100
AcDbEntity
8
0
100
AcDbSpline
70
0
71
3
72
16
73
12
74
0
42
0.000000001
43
0.0000000001
44
0.0000000001
40
-0.53526728930757372
40
-0.53526728930757372
40
-0.53526728930757372
40
-0.53526728930757372
40
-0.47095027374512927
40
-0.47095027374512927
40
-0.41199069549792772
40
-0.41199069549792772
40
-0.32657888182471301
40
-0.32657888182471301
40
-0.21273642098232295
40
-0.21273642098232295
40
0
40
0
40
0
40
0
10
-176.86883337637147
20
95.580315528497565
30
0
10
-176.67949363308622
20
95.60693278899754
30
0
10
-176.49209392819816
20
95.650582393366903
30
0
10
-176.14829481826581
20
95.777630852579975
30
0
10
-175.9926535186504
20
95.856658424773912
30
0
10
-175.64097624463173
20
96.102789506288929
30
0
10
-175.47064054748529
20
96.284754513501582
30
0
10
-175.15383372447747
20
96.785361799083347
30
0
10
-175.04494302016661
20
97.112451788545854
30
0
10
-174.86483159880063
20
98.065965398348411
30
0
10
-174.89464333104337
20
98.777150326538788
30
0
10
-174.99336048678967
20
99.479366879849238
30
0
0
LINE
5
160
100
AcDbEntity
8
0
100
AcDbLine
10
-176.86883337637147
20
95.580315528497565
30
0
11
-219.54196212256898
21
89.581354272513607
31
0
0
ARC
5
161
100
AcDbEntity
8
0
100
AcDbCircle
10
-222.32617242253912
20
109.38661046892621
30
0
40
20
210
0
220
0
230
1
100
AcDbArc
50
269.99999999999983
51
278.00216473928299
0
LINE
5
162
100
AcDbEntity
8
0
100
AcDbLine
10
-222.32617242253917
20
89.386610468926207
30
0
11
-244.60699999999903
21
89.386610468927188
31
0
0
SPLINE
5
163
100
AcDbEntity
8
0
100
AcDbSpline
70
0
71
3
72
16
73
12
74
0
42
0.000000001
43
0.0000000001
44
0.0000000001
40
-0.4899724911860896
40
-0.4899724911860896
40
-0.4899724911860896
40
-0.4899724911860896
40
-0.35677743317461696
40
-0.35677743317461696
40
-0.24977267189644359
40
-0.24977267189644359
40
-0.16888326316322455
40
-0.16888326316322455
40
-0.093447611961471735
40
-0.093447611961471735
40
0
40
0
40
0
40
0
10
-247.00700000000663
20
92.986610468924397
30
0
10
-247.00700000000654
20
92.543364839077469
30
0
10
-246.97971295995382
20
92.082124807587348
30
0
10
-246.84178342765594
20
91.294036971731771
30
0
10
-246.74488278484117
20
90.937217486635575
30
0
10
-246.47627907454807
20
90.371309888944467
30
0
10
-246.32769872990704
20
90.145416419984286
30
0
10
-245.95723730158676
20
89.778681045814579
30
0
10
-245.75115468453933
20
89.643191178842443
30
0
10
-245.2290564001658
20
89.432092011537748
30
0
10
-244.91849203987061
20
89.386610468927131
30
0
10
-244.60699999999903
20
89.386610468927188
30
0
0
ARC
5
164
100
AcDbEntity
8
0
100
AcDbCircle
10
-250.60699999999966
20
92.986610468926244
30
0
40
3.599999999993031
210
0
220
0
230
1
100
AcDbArc
50
0
51
180
0
SPLINE
5
165
100
AcDbEntity
8
0
100
AcDbSpline
70
0
71
3
72
16
73
12
74
0
42
0.000000001
43
0.0000000001
44
0.0000000001
40
-0.53526728930416145
40
-0.53526728930416145
40
-0.53526728930416145
40
-0.53526728930416145
40
-0.47095027374229209
40
-0.47095027374229209
40
-0.4119906954955419
40
-0.4119906954955419
40
-0.32657888182290851
40
-0.32657888182290851
40
-0.2127364209812842
40
-0.2127364209812842
40
0
40
0
40
0
40
0
10
-256.60699999999969
20
89.38661046892625
30
0
10
-256.41579849126151
20
89.38661046892625
30
0
10
-256.22414704903542
20
89.403747039368525
30
0
10
-255.86600909498259
20
89.48169795242265
30
0
10
-255.70088183527727
20
89.538289112642261
30
0
10
-255.31836487514278
20
89.733066394578046
30
0
10
-255.1243563267079
20
89.889547053787155
30
0
10
-254.74094451394816
20
90.34117699003788
30
0
10
-254.58757973325004
20
90.64992331104142
30
0
10
-254.27648297036839
20
91.569078973762075
30
0
10
-254.20699999999269
20
92.277489065652873
30
0
10
-254.20699999999269
20
92.986610468923828
30
0
0
LINE
5
166
100
AcDbEntity
8
0
100
AcDbLine
10
-256.60699999999969
20
89.38661046892625
30
0
11
-279.10699999999969
21
89.386610468926307
31
0
0
ARC
5
167
100
AcDbEntity
8
0
100
AcDbCircle
10
-279.10699999999974
20
81.886610468926321
30
0
40
7.4999999999999822
210
0
220
-0
230
1
100
AcDbArc
50
89.999999999999574
51
180
0
LINE
5
168
100
AcDbEntity
8
0
100
AcDbLine
10
-286.60699999999969
20
81.886610468926307
30
0
11
-286.60699999999969
21
72.886610468926307
31
0
0
SPLINE
5
169
100
AcDbEntity
8
0
100
AcDbSpline
70
0
71
3
72
16
73
12
74
0
42
0.000000001
43
0.0000000001
44
0.0000000001
40
-0.48997249118604669
40
-0.48997249118604669
40
-0.48997249118604669
40
-0.48997249118604669
40
-0.35677743317445221
40
-0.35677743317445221
40
-0.24977267189630342
40
-0.24977267189630342
40
-0.16888326316311722
40
-0.16888326316311722
40
-0.093447611961400195
40
-0.093447611961400195
40
0
40
0
40
0
40
0
10
-290.20699999999908
20
70.486610468919338
30
0
10
-289.76375437015241
20
70.486610468919338
30
0
10
-289.30251433866152
20
70.513897508971951
30
0
10
-288.51442650280541
20
70.651827041269769
30
0
10
-288.15760701770876
20
70.748727684084557
30
0
10
-287.59169942001722
20
71.017331394377749
30
0
10
-287.36580595105704
20
71.165911739018782
30
0
10
-286.99907057688728
20
71.536373167338979
30
0
10
-286.86358070991508
20
71.742455784386337
30
0
10
-286.6524815426103
20
72.264554068759807
30
0
10
-286.60699999999969
20
72.575118429054982
30
0
10
-286.60699999999969
20
72.886610468926307
30
0
0
ARC
5
170
100
AcDbEntity
8
0
100
AcDbCircle
10
-290.20699999999971
20
66.886610468926307
30
0
40
3.599999999993031
210
0
220
-0
230
1
100
AcDbArc
50
89.999999999990052
51
269.99999999998909
0
SPLINE
5
171
100
AcDbEntity
8
0
100
AcDbSpline
70
0
71
3
72
16
73
12
74
0
42
0.000000001
43
0.0000000001
44
0.0000000001
40
-0.53526728930490053
40
-0.53526728930490053
40
-0.53526728930490053
40
-0.53526728930490053
40
-0.47095027374283033
40
-0.47095027374283033
40
-0.41199069549599809
40
-0.41199069549599809
40
-0.32657888182329825
40
-0.32657888182329825
40
-0.21273642098154791
40
-0.21273642098154791
40
0
40
0
40
0
40
0
10
-286.60699999999969
20
60.886610468926307
30
0
10
-286.60699999999969
20
61.077811977664723
30
0
10
-286.62413657044203
20
61.269463419890513
30
0
10
-286.70208748349603
20
61.627601373942753
30
0
10
-286.7586786437156
20
61.792728633648267
30
0
10
-286.9534559256515
20
62.17524559378294
30
0
10
-287.10993658486063
20
62.369254142217784
30
0
10
-287.56156652111139
20
62.752665954977552
30
0
10
-287.87031284211491
20
62.906030735675706
30
0
10
-288.78946850483595
20
63.217127498557474
30
0
10
-289.49787859672722
20
63.286610468933276
30
0
10
-290.20699999999908
20
63.286610468933276
30
0
0
LINE
5
172
100
AcDbEntity
8
0
100
AcDbLine
10
-286.60699999999969
20
60.886610468926307
30
0
11
-286.60699999999969
21
23.999999999999989
31
0
0
SPLINE
5
173
100
AcDbEntity
8
0
100
AcDbSpline
70
0
71
3
72
16
73
12
74
0
42
0.000000001
43
0.0000000001
44
0.0000000001
40
-0.48997249118580366
40
-0.48997249118580366
40
-0.48997249118580366
40
-0.48997249118580366
40
-0.35677743317428323
40
-0.35677743317428323
40
-0.2497726718961763
40
-0.2497726718961763
40
-0.16888326316306251
40
-0.16888326316306251
40
-0.09344761196140236
40
-0.09344761196140236
40
0
40
0
40
0
40
0
10
-290.20699999999908
20
21.59999999999302
30
0
10
-289.76375437015218
20
21.59999999999302
30
0
10
-289.30251433866147
20
21.627287040045662
30
0
10
-288.51442650280546
20
21.765216572343459
30
0
10
-288.15760701770881
20
21.862117215158236
30
0
10
-287.59169942001733
20
22.130720925451371
30
0
10
-287.36580595105704
20
22.279301270092414
30
0
10
-286.99907057688716
20
22.649762698412729
30
0
10
-286.86358070991503
20
22.855845315460215
30
0
10
-286.6524815426103
20
23.37794359983349
30
0
10
-286.60699999999969
20
23.68850796012865
30
0
10
-286.60699999999969
20
23.999999999999989
30
0
0
ARC
5
174
100
AcDbEntity
8
0
100
AcDbCircle
10
-290.20699999999971
20
17.999999999999989
30
0
40
3.599999999993031
210
0
220
-0
230
1
100
AcDbArc
50
89.999999999990052
51
269.99999999998909
0
SPLINE
5
175
100
AcDbEntity
8
0
100
AcDbSpline
70
0
71
3
72
16
73
12
74
0
42
0.000000001
43
0.0000000001
44
0.0000000001
40
-0.53526728930313927
40
-0.53526728930313927
40
-0.53526728930313927
40
-0.53526728930313927
40
-0.4709502737414597
40
-0.4709502737414597
40
-0.41199069549487111
40
-0.41199069549487111
40
-0.32657888182245154
40
-0.32657888182245154
40
-0.21273642098111273
40
-0.21273642098111273
40
0
40
0
40
0
40
0
10
-286.60699999999969
20
11.999999999999989
30
0
10
-286.60699999999969
20
12.191201508738015
30
0
10
-286.62413657044192
20
12.382852950964054
30
0
10
-286.70208748349609
20
12.740990905016895
30
0
10
-286.75867864371571
20
12.906118164722127
30
0
10
-286.9534559256515
20
13.288635124856572
30
0
10
-287.10993658486052
20
13.482643673291385
30
0
10
-287.56156652111139
20
13.866055486051254
30
0
10
-287.87031284211503
20
14.019420266749412
30
0
10
-288.7894685048368
20
14.330517029631419
30
0
10
-289.4978785967287
20
14.40000000000696
30
0
10
-290.20699999999908
20
14.40000000000696
30
0
0
LINE
5
176
100
AcDbEntity
8
0
100
AcDbLine
10
-286.60699999999969
20
11.999999999999989
30
0
11
-286.60699999999969
21
2.9999999999999893
31
0
0
ARC
5
177
100
AcDbEntity
8
0
100
AcDbCircle
10
-280.60699999999969
20
3.0000000000000315
30
0
40
6.0000000000000142
210
0
220
0
230
1
100
AcDbArc
50
180
51
270
0
LINE
5
178
100
AcDbEntity
8
0
100
AcDbLine
10
-280.60699999999969
20
-2.9999999999999827
30
0
11
-256.60699999999969
21
-2.9999999999999991
31
0
0
SPLINE
5
179
100
AcDbEntity
8
0
100
AcDbSpline
70
0
71
3
72
16
73
12
74
0
42
0.000000001
43
0.0000000001
44
0.0000000001
40
-0.48997249118560698
40
-0.48997249118560698
40
-0.48997249118560698
40
-0.48997249118560698
40
-0.35677743317378607
40
-0.35677743317378607
40
-0.24977267189551938
40
-0.24977267189551938
40
-0.16888326316248117
40
-0.16888326316248117
40
-0.093447611960989649
40
-0.093447611960989649
40
0
40
0
40
0
40
0
10
-254.20699999999968
20
-6.6000000000000005
30
0
10
-254.20699999999968
20
-6.1567543701530836
30
0
10
-254.23428704005229
20
-5.6955143386608755
30
0
10
-254.37221657235028
20
-4.9074265028032542
30
0
10
-254.46911721516517
20
-4.5506070177062146
30
0
10
-254.73772092545832
20
-3.9846994200148398
30
0
10
-254.88630127009907
20
-3.7588059510550993
30
0
10
-255.25676269841827
20
-3.3920705768862209
30
0
10
-255.46284531546496
20
-3.2565807099144415
30
0
10
-255.98494359983619
20
-3.0454815426104815
30
0
10
-256.29550796012973
20
-2.9999999999999991
30
0
10
-256.60699999999969
20
-2.9999999999999991
30
0
0
ARC
5
180
100
AcDbEntity
8
0
100
AcDbCircle
10
-250.60699999999969
20
-6.6000000000000068
30
0
40
3.5999999999999943
210
0
220
0
230
1
100
AcDbArc
50
180
51
360
0
SPLINE
5
181
100
AcDbEntity
8
0
100
AcDbSpline
70
0
71
3
72
16
73
12
74
0
42
0.000000001
43
0.0000000001
44
0.0000000001
40
-0.53526728930528811
40
-0.53526728930528811
40
-0.53526728930528811
40
-0.53526728930528811
40
-0.47095027374352411
40
-0.47095027374352411
40
-0.41199069549683748
40
-0.41199069549683748
40
-0.32657888182412037
40
-0.32657888182412037
40
-0.21273642098228543
40
-0.21273642098228543
40
0
40
0
40
0
40
0
10
-244.60699999999969
20
-2.9999999999999991
30
0
10
-244.79820150873678
20
-2.9999999999999991
30
0
10
-244.98985295096176
20
-3.0171365704421942
30
0
10
-245.34799090501275
20
-3.0950874834959556
30
0
10
-245.51311816471718
20
-3.1516786437152899
30
0
10
-245.89563512485023
20
-3.3464559256502939
30
0
10
-246.08964367328446
20
-3.5029365848588716
30
0
10
-246.47305548604365
20
-3.9545665211088563
30
0
10
-246.62642026674163
20
-4.2633128421121231
30
0
10
-246.93751702962359
20
-5.1824685048330918
30
0
10
-247.00699999999966
20
-5.8908785967257158
30
0
10
-247.00699999999969
20
-6.6000000000000005
30
0
0
LINE
5
182
100
AcDbEntity
8
0
100
AcDbLine
10
-244.60699999999969
20
-2.9999999999999991
30
0
11
-222.3258513348656
21
-3.0000000000000093
31
0
0
ARC
5
183
100
AcDbEntity
8
0
100
AcDbCircle
10
-222.32585133486566
20
17.000000000001165
30
0
40
20.000000000001172
210
0
220
0
230
1
100
AcDbArc
50
270.00000000000017
51
278.00033399712049
0
LINE
5
184
100
AcDbEntity
8
0
100
AcDbLine
10
-219.54227386333915
20
-2.8053451487221217
30
0
11
-176.86886006206436
21
3.1922657183633216
31
0
0
SPLINE
5
185
100
AcDbEntity
8
0
100
AcDbSpline
70
0
71
3
72
16
73
12
74
0
42
0.000000001
43
0.0000000001
44
0.0000000001
40
-0.48997249118579234
40
-0.48997249118579234
40
-0.48997249118579234
40
-0.48997249118579234
40
-0.35677743317382393
40
-0.35677743317382393
40
-0.24977267189546787
40
-0.24977267189546787
40
-0.16888326316247093
40
-0.16888326316247093
40
-0.093447611961005539
40
-0.093447611961005539
40
0
40
0
40
0
40
0
10
-173.99117469934316
20
-0.038667111823542759
30
0
10
-174.05286512682295
20
0.40026452241642574
30
0
10
-174.14408145717073
20
0.85321764392363109
30
0
10
-174.39035373411255
20
1.6144383468185435
30
0
10
-174.53597300192251
20
1.954298477409788
30
0
10
-174.88072484344653
20
2.4773142803007131
30
0
10
-175.05929869240089
20
2.6803299412776194
30
0
10
-175.47719633128582
20
2.9919355701637143
30
0
10
-175.7001305263401
20
3.0974244026359887
30
0
10
-176.24652790683473
20
3.2338039449741887
30
0
10
-176.56039969402909
20
3.2356188296004214
30
0
10
-176.86886006206436
20
3.1922657183633216
30
0
0
ARC
5
186
100
AcDbEntity
8
0
100
AcDbCircle
10
-170.42621257257298
20
0.46237683305127336
30
0
40
3.6000000000002164
210
0
220
0
230
1
100
AcDbArc
50
-171.99966600287883
51
8.0003339971210359
0
SPLINE
5
187
100
AcDbEntity
8
0
100
AcDbSpline
70
0
71
3
72
16
73
12
74
0
42
0.000000001
43
0.0000000001
44
0.0000000001
40
-0.53526728930100198
40
-0.53526728930100198
40
-0.53526728930100198
40
-0.53526728930100198
40
-0.47095027373980958
40
-0.47095027373980958
40
-0.41199069549368189
40
-0.41199069549368189
40
-0.32657888182183259
40
-0.32657888182183259
40
-0.21273642098106477
40
-0.21273642098106477
40
0
40
0
40
0
40
0
10
-164.98565297283113
20
4.8624122012792022
30
0
10
-165.174993566506
20
4.8358009906670594
30
0
10
-165.3623946660108
20
4.792157374205221
30
0
10
-165.70619783527968
20
4.6651199002910175
30
0
10
-165.86184165994158
20
4.5860973012630089
30
0
10
-166.21352679827743
20
4.3399774568350145
30
0
10
-166.38386830956938
20
4.158017892363346
30
0
10
-166.7006911280582
20
3.6574207298014292
30
0
10
-166.80959228364912
20
3.3303342198341483
30
0
10
-166.98973417204687
20
2.3768263655213495
30
0
10
-166.95994516393893
20
1.665640485131676
30
0
10
-166.8612504458028
20
0.96342077792605019
30
0
0
LINE
5
188
100
AcDbEntity
8
0
100
AcDbLine
10
-164.98565297283113
20
4.8624122012792022
30
0
11
-138.41313661326939
21
8.5970937907598906
31
0
0
ARC
5
189
100
AcDbEntity
8
0
100
AcDbCircle
10
-135.62955914174296
20
-11.208251357962226
30
0
40
20
210
0
220
-0
230
1
100
AcDbArc
50
82.010162455233043
51
98.00033399712072
0
LINE
5
190
100
AcDbEntity
8
0
100
AcDbLine
10
-132.84961000966166
20
8.5976034032703819
30
0
11
-106.16379389263784
21
4.8519831183731359
31
0
0
SPLINE
5
191
100
AcDbEntity
8
0
100
AcDbSpline
70
0
71
3
72
16
73
12
74
0
42
0.000000001
43
0.0000000001
44
0.0000000001
40
-0.48997249118570207
40
-0.48997249118570207
40
-0.48997249118570207
40
-0.48997249118570207
40
-0.35677743317383148
40
-0.35677743317383148
40
-0.24977267189552277
40
-0.24977267189552277
40
-0.16888326316248914
40
-0.16888326316248914
40
-0.093447611960999058
40
-0.093447611960999058
40
0
40
0
40
0
40
0
10
-104.28748216506452
20
0.9533353655015091
30
0
10
-104.22587214986481
20
1.3922782939172149
30
0
10
-104.18878311621084
20
1.8528337767723109
30
0
10
-104.21583152564494
20
2.6524432917564464
30
0
10
-104.26219452764272
20
3.0192679795416133
30
0
10
-104.44953111461044
20
3.6170173965144334
30
0
10
-104.56527053327797
20
3.8613703484072674
30
0
10
-104.88116051121823
20
4.2760389225433206
30
0
10
-105.06640988341562
20
4.4388585135062062
30
0
10
-105.55409777563639
20
4.7204788195231187
30
0
10
-105.85532558759057
20
4.8086865170787947
30
0
10
-106.16379389263784
20
4.8519831183731359
30
0
0
ARC
5
192
100
AcDbEntity
8
0
100
AcDbCircle
10
-100.72242830804265
20
0.45294452172687294
30
0
40
3.5999999999999996
210
0
220
0
230
1
100
AcDbArc
50
172.01016245523303
51
352.01016245523329
0
SPLINE
5
193
100
AcDbEntity
8
0
100
AcDbSpline
70
0
71
3
72
16
73
12
74
0
42
0.000000001
43
0.0000000001
44
0.0000000001
40
-0.53526728930373146
40
-0.53526728930373146
40
-0.53526728930373146
40
-0.53526728930373146
40
-0.47095027374216913
40
-0.47095027374216913
40
-0.41199069549569178
40
-0.41199069549569178
40
-0.32657888182329881
40
-0.32657888182329881
40
-0.21273642098182943
40
-0.21273642098182943
40
0
40
0
40
0
40
0
10
-94.280281035898255
20
3.1840136391244829
30
0
10
-94.469626501507094
20
3.2105901625378079
30
0
10
-94.66179947268796
20
3.2202590042973913
30
0
10
-95.027295866463305
20
3.1928450459014384
30
0
10
-95.198686219941493
20
3.1597555000126638
30
0
10
-95.604563534539992
20
3.0200378567393784
30
0
10
-95.818439204814041
20
2.8920428910697229
30
0
10
-96.260904551141365
20
2.498090311715671
30
0
10
-96.455695533096275
20
2.213658386572567
30
0
10
-96.891532697554524
20
1.3466668674292985
30
0
10
-97.058808379542384
20
0.65479145401741179
30
0
10
-97.157374451020786
20
-0.047446322047682739
30
0
0
LINE
5
194
100
AcDbEntity
8
0
100
AcDbLine
10
-94.280281035898255
20
3.1840136391244829
30
0
11
-51.605232702352815
21
-2.8058547612326361
31
0
0
ARC
5
195
100
AcDbEntity
8
0
100
AcDbCircle
10
-48.825283570271452
20
17.000000000000846
30
0
40
20.00000000000087
210
0
220
0
230
1
100
AcDbArc
50
262.01016245523323
51
269.99999999999983
0
LINE
5
196
100
AcDbEntity
8
0
100
AcDbLine
10
-48.825283570271509
20
-3.0000000000000231
30
0
11
-16
21
-3.0000000000000231
31
0
0
SPLINE
5
197
100
AcDbEntity
8
0
100
AcDbSpline
70
0
71
3
72
16
73
12
74
0
42
0.000000001
43
0.0000000001
44
0.0000000001
40
-0.48997249118567149
40
-0.48997249118567149
40
-0.48997249118567149
40
-0.48997249118567149
40
-0.35677743317380112
40
-0.35677743317380112
40
-0.24977267189549376
40
-0.24977267189549376
40
-0.16888326316247082
40
-0.16888326316247082
40
-0.093447611960990884
40
-0.093447611960990884
40
0
40
0
40
0
40
0
10
-13.600000000000001
20
-6.6000000000000245
30
0
10
-13.600000000000012
20
-6.156754370152373
30
0
10
-13.627287040052668
20
-5.6955143386606801
30
0
10
-13.765216572350607
20
-4.9074265028034318
30
0
10
-13.862117215165462
20
-4.5506070177062741
30
0
10
-14.130720925458604
20
-3.984699420014945
30
0
10
-14.279301270099333
20
-3.7588059510551357
30
0
10
-14.649762698418591
20
-3.3920705768862169
30
0
10
-14.855845315465325
20
-3.2565807099144441
30
0
10
-15.377943599836501
20
-3.0454815426105055
30
0
10
-15.688507960130032
20
-3.0000000000000231
30
0
10
-16
20
-3.0000000000000231
30
0
0
ARC
5
198
100
AcDbEntity
8
0
100
AcDbCircle
10
-10
20
-6.6000000000000236
30
0
40
3.600000000000001
210
0
220
0
230
1
100
AcDbArc
50
-180
51
0
0
SPLINE
5
199
100
AcDbEntity
8
0
100
AcDbSpline
70
0
71
3
72
16
73
12
74
0
42
0.000000001
43
0.0000000001
44
0.0000000001
40
-0.53526728930335321
40
-0.53526728930335321
40
-0.53526728930335321
40
-0.53526728930335321
40
-0.47095027374185822
40
-0.47095027374185822
40
-0.41199069549543549
40
-0.41199069549543549
40
-0.32657888182310807
40
-0.32657888182310807
40
-0.21273642098174317
40
-0.21273642098174317
40
0
40
0
40
0
40
0
10
-3.9999999999999991
20
-3.0000000000000231
30
0
10
-4.1912015087371239
20
-3.0000000000000231
30
0
10
-4.3828529509621079
20
-3.0171365704422208
30
0
10
-4.7409909050130432
20
-3.0950874834959756
30
0
10
-4.906118164717534
20
-3.1516786437153117
30
0
10
-5.2886351248506465
20
-3.3464559256503632
30
0
10
-5.4826436732849029
20
-3.5029365848590133
30
0
10
-5.8660554860440053
20
-3.9545665211089305
30
0
10
-6.0194202667419683
20
-4.2633128421122004
30
0
10
-6.3305170296242519
20
-5.1824685048341648
30
0
10
-6.3999999999999826
20
-5.8908785967275481
30
0
10
-6.3999999999999986
20
-6.6000000000000245
30
0
0
LINE
5
200
100
AcDbEntity
8
0
100
AcDbLine
10
-3.9999999999999991
20
-3.0000000000000231
30
0
11
0
21
-3.000000000000024
31
0
0
ARC
5
201
100
AcDbEntity
8
0
100
AcDbCircle
10
-6.6613381477509392e-15
20
2.9999999999999845
30
0
40
6.0000000000000071
210
0
220
0
230
1
100
AcDbArc
50
-89.999999999999943
51
0
0
LINE
5
202
100
AcDbEntity
8
0
100
AcDbLine
10
6.0000000000000009
20
2.9999999999999898
30
0
11
5.9999999999999778
21
11.999999999999989
31
0
0
SPLINE
5
203
100
AcDbEntity
8
0
100
AcDbSpline
70
0
71
3
72
16
73
12
74
0
42
0.000000001
43
0.0000000001
44
0.0000000001
40
-0.48997249118614472
40
-0.48997249118614472
40
-0.48997249118614472
40
-0.48997249118614472
40
-0.35677743317452815
40
-0.35677743317452815
40
-0.24977267189633987
40
-0.24977267189633987
40
-0.16888326316315433
40
-0.16888326316315433
40
-0.093447611961434099
40
-0.093447611961434099
40
0
40
0
40
0
40
0
10
9.5999999999993673
20
14.40000000000696
30
0
10
9.1567543701524876
20
14.40000000000696
30
0
10
8.6955143386617202
20
14.37271295995432
30
0
10
7.9074265028056088
20
14.234783427656501
30
0
10
7.5506070177089946
20
14.137882784841713
30
0
10
6.9846994200175168
20
13.869279074548553
30
0
10
6.75880595105731
20
13.720698729907518
30
0
10
6.392070576887491
20
13.350237301587267
30
0
10
6.2565807099153492
20
13.144154684539837
30
0
10
6.0454815426106157
20
12.622056400166517
30
0
10
5.9999999999999778
20
12.311492039871435
30
0
10
5.9999999999999778
20
11.999999999999989
30
0
0
ARC
5
204
100
AcDbEntity
8
0
100
AcDbCircle
10
9.5999999999999712
20
17.999999999999989
30
0
40
3.5999999999930288
210
0
220
0
230
1
100
AcDbArc
50
-90.000000000009607
51
89.999999999990322
0
SPLINE
5
205
100
AcDbEntity
8
0
100
AcDbSpline
70
0
71
3
72
16
73
12
74
0
42
0.000000001
43
0.0000000001
44
0.0000000001
40
-0.53526728930409906
40
-0.53526728930409906
40
-0.53526728930409906
40
-0.53526728930409906
40
-0.47095027374225806
40
-0.47095027374225806
40
-0.41199069549553768
40
-0.41199069549553768
40
-0.32657888182294093
40
-0.32657888182294093
40
-0.21273642098137194
40
-0.21273642098137194
40
0
40
0
40
0
40
0
10
5.9999999999999778
20
23.999999999999989
30
0
10
5.9999999999999778
20
23.808798491261882
30
0
10
6.017136570442247
20
23.6171470490359
30
0
10
6.0950874834963633
20
23.259009094983174
30
0
10
6.151678643715953
20
23.093881835277898
30
0
10
6.3464559256517195
20
22.711364875143421
30
0
10
6.5029365848607732
20
22.517356326708608
30
0
10
6.9545665211116567
20
22.133944513948727
30
0
10
7.2633128421153277
20
21.980579733250565
30
0
10
8.1824685048366081
20
21.669482970368716
30
0
10
8.8908785967281272
20
21.59999999999302
30
0
10
9.5999999999993673
20
21.59999999999302
30
0
0
LINE
5
206
100
AcDbEntity
8
0
100
AcDbLine
10
5.9999999999999778
20
23.999999999999989
30
0
11
5.9999999999999751
21
60.886610468926307
31
0
0
SPLINE
5
207
100
AcDbEntity
8
0
100
AcDbSpline
70
0
71
3
72
16
73
12
74
0
42
0.000000001
43
0.0000000001
44
0.0000000001
40
-0.4899724911862039
40
-0.4899724911862039
40
-0.4899724911862039
40
-0.4899724911862039
40
-0.35677743317453386
40
-0.35677743317453386
40
-0.24977267189635149
40
-0.24977267189635149
40
-0.16888326316316216
40
-0.16888326316316216
40
-0.093447611961436153
40
-0.093447611961436153
40
0
40
0
40
0
40
0
10
9.5999999999993655
20
63.286610468933276
30
0
10
9.1567543701525249
20
63.286610468933276
30
0
10
8.6955143386617291
20
63.259323428880649
30
0
10
7.9074265028057633
20
63.121393896582852
30
0
10
7.5506070177090399
20
63.024493253768071
30
0
10
6.9846994200174652
20
62.755889543474865
30
0
10
6.7588059510572984
20
62.607309198833825
30
0
10
6.3920705768875008
20
62.236847770513592
30
0
10
6.2565807099153572
20
62.030765153466177
30
0
10
6.0454815426106157
20
61.508666869092835
30
0
10
5.9999999999999751
20
61.19810250879776
30
0
10
5.9999999999999751
20
60.886610468926307
30
0
0
ARC
5
208
100
AcDbEntity
8
0
100
AcDbCircle
10
9.5999999999999694
20
66.886610468926307
30
0
40
3.599999999993031
210
0
220
0
230
1
100
AcDbArc
50
-90.000000000009607
51
90.000000000009649
0
SPLINE
5
209
100
AcDbEntity
8
0
100
AcDbSpline
70
0
71
3
72
16
73
12
74
0
42
0.000000001
43
0.0000000001
44
0.0000000001
40
-0.53526728930179801
40
-0.53526728930179801
40
-0.53526728930179801
40
-0.53526728930179801
40
-0.47095027374028781
40
-0.47095027374028781
40
-0.41199069549387513
40
-0.41199069549387513
40
-0.32657888182172129
40
-0.32657888182172129
40
-0.21273642098072498
40
-0.21273642098072498
40
0
40
0
40
0
40
0
10
5.9999999999999742
20
72.886610468926307
30
0
10
5.9999999999999742
20
72.695408960188189
30
0
10
6.0171365704422453
20
72.503757517962214
30
0
10
6.0950874834963544
20
72.14561956390952
30
0
10
6.1516786437159423
20
71.980492304204219
30
0
10
6.3464559256517212
20
71.597975344069724
30
0
10
6.5029365848608105
20
71.403966795634901
30
0
10
6.9545665211116585
20
71.020554982875041
30
0
10
7.2633128421153179
20
70.867190202176886
30
0
10
8.1824685048377948
20
70.556093439294628
30
0
10
8.8908785967302819
20
70.486610468919324
30
0
10
9.5999999999993655
20
70.486610468919324
30
0
0
LINE
5
210
100
AcDbEntity
8
0
100
AcDbLine
10
5.9999999999999742
20
72.886610468926307
30
0
11
5.9999999999999654
21
81.88661046892571
31
0
0
ARC
5
211
100
AcDbEntity
8
0
100
AcDbCircle
10
-1.5000000000000431
20
81.88661046892571
30
0
40
7.5000000000000089
210
0
220
0
230
1
100
AcDbArc
50
0
51
89.999999999999815
0
LINE
5
212
100
AcDbEntity
8
0
100
AcDbLine
10
-1.5000000000000191
20
89.38661046892571
30
0
11
-24.000000000000025
21
89.38661046892625
31
0
0
SPLINE
5
213
100
AcDbEntity
8
0
100
AcDbSpline
70
0
71
3
72
16
73
12
74
0
42
0.000000001
43
0.0000000001
44
0.0000000001
40
-0.48997249118599184
40
-0.48997249118599184
40
-0.48997249118599184
40
-0.48997249118599184
40
-0.35677743317446292
40
-0.35677743317446292
40
-0.24977267189635644
40
-0.24977267189635644
40
-0.1688832631632004
40
-0.1688832631632004
40
-0.09344761196148213
40
-0.09344761196148213
40
0
40
0
40
0
40
0
10
-26.400000000007044
20
92.986610468923828
30
0
10
-26.400000000007044
20
92.54336483907727
30
0
10
-26.372712959954416
20
92.082124807586894
30
0
10
-26.234783427656694
20
91.29403697173143
30
0
10
-26.137882784841967
20
90.937217486634992
30
0
10
-25.86927907454891
20
90.371309888943756
30
0
10
-25.720698729907888
20
90.145416419983562
30
0
10
-25.350237301587608
20
89.778681045813741
30
0
10
-25.144154684540108
20
89.643191178841619
30
0
10
-24.622056400166784
20
89.432092011536909
30
0
10
-24.311492039871631
20
89.38661046892625
30
0
10
-24.000000000000025
20
89.38661046892625
30
0
0
ARC
5
214
100
AcDbEntity
8
0
100
AcDbCircle
10
-30.000000000000075
20
92.986610468926244
30
0
40
3.599999999993031
210
0
220
0
230
1
100
AcDbArc
50
0
51
180
0
SPLINE
5
215
100
AcDbEntity
8
0
100
AcDbSpline
70
0
71
3
72
16
73
12
74
0
42
0.000000001
43
0.0000000001
44
0.0000000001
40
-0.53526728930408563
40
-0.53526728930408563
40
-0.53526728930408563
40
-0.53526728930408563
40
-0.47095027374210402
40
-0.47095027374210402
40
-0.41199069549533596
40
-0.41199069549533596
40
-0.32657888182274747
40
-0.32657888182274747
40
-0.21273642098119711
40
-0.21273642098119711
40
0
40
0
40
0
40
0
10
-36.000000000000696
20
89.386610468927188
30
0
10
-35.808798491262344
20
89.386610468927159
30
0
10
-35.61714704903639
20
89.403747039369421
30
0
10
-35.259009094983881
20
89.481697952423431
30
0
10
-35.093881835278367
20
89.538289112642971
30
0
10
-34.71136487514368
20
89.733066394578771
30
0
10
-34.517356326708828
20
89.889547053787851
30
0
10
-34.133944513948947
20
90.341176990038576
30
0
10
-33.980579733250771
20
90.649923311042144
30
0
10
-33.669482970368982
20
91.569078973762856
30
0
10
-33.599999999993216
20
92.277489065653739
30
0
10
-33.599999999993109
20
92.986610468924397
30
0
0
LINE
5
216
100
AcDbEntity
8
0
100
AcDbLine
10
-36.000000000000696
20
89.386610468927188
30
0
11
-48.823880890616003
21
89.386610468925824
31
0
0
ARC
5
217
100
AcDbEntity
8
0
100
AcDbCircle
10
-48.82388089061596
20
109.38661046892582
30
0
40
20
210
0
220
0
230
1
100
AcDbArc
50
262.00216473928293
51
269.99999999999989
0
LINE
5
218
100
AcDbEntity
8
0
100
AcDbLine
10
-51.606594625075147
20
89.581143943947112
30
0
11
-94.280397506774506
21
95.576911689722778
31
0
0
SPLINE
5
219
100
AcDbEntity
8
0
100
AcDbSpline
70
0
71
3
72
16
73
12
74
0
42
0.000000001
43
0.0000000001
44
0.0000000001
40
-0.48997249118624236
40
-0.48997249118624236
40
-0.48997249118624236
40
-0.48997249118624236
40
-0.35677743317461141
40
-0.35677743317461141
40
-0.24977267189636934
40
-0.24977267189636934
40
-0.16888326316315877
40
-0.16888326316315877
40
-0.093447611961430255
40
-0.093447611961430255
40
0
40
0
40
0
40
0
10
-96.156165017576143
20
99.475821312354952
30
0
10
-96.217836302671856
20
99.036886988141106
30
0
10
-96.254989623281034
20
98.576336686901115
30
0
10
-96.228052828784371
20
97.776723404115586
30
0
10
-96.181741031003526
20
97.409892248256668
30
0
10
-95.994487883595269
20
96.812116687453226
30
0
10
-95.878782574422416
20
96.567747582282863
30
0
10
-95.562950481683501
20
96.153034918216832
30
0
10
-95.377723838703048
20
95.990189470532741
30
0
10
-94.89007526161744
20
95.70850109262436
30
0
10
-94.588859765198066
20
95.620251348599027
30
0
10
-94.280397506774506
20
95.576911689722778
30
0
0
ARC
5
220
100
AcDbEntity
8
0
100
AcDbCircle
10
-99.72114899206538
20
99.976709784556746
30
0
40
3.5999999999930177
210
0
220
0
230
1
100
AcDbArc
50
-7.9978352607187952
51
172.00216473928165
0
SPLINE
5
221
100
AcDbEntity
8
0
100
AcDbSpline
70
0
71
3
72
16
73
12
74
0
42
0.000000001
43
0.0000000001
44
0.0000000001
40
-0.53526728930460099
40
-0.53526728930460099
40
-0.53526728930460099
40
-0.53526728930460099
40
-0.47095027374267201
40
-0.47095027374267201
40
-0.41199069549589418
40
-0.41199069549589418
40
-0.32657888182323097
40
-0.32657888182323097
40
-0.21273642098155349
40
-0.21273642098155349
40
0
40
0
40
0
40
0
10
-106.16367742176165
20
97.246539930398356
30
0
10
-105.97433566771971
20
97.219936977177611
30
0
10
-105.78216404804969
20
97.210241310764445
30
0
10
-105.41666383121564
20
97.237604250539974
30
0
10
-105.24526886055325
20
97.270669872331126
30
0
10
-104.83937204721406
20
97.410330859259901
30
0
10
-104.62547851265688
20
97.538295969531873
30
0
10
-104.18295818018709
20
97.932186782870602
30
0
10
-103.98812749727961
20
98.216591515056535
30
0
10
-103.55216931677732
20
99.083522188779099
30
0
10
-103.38479705996883
20
99.775374246026047
30
0
10
-103.28613296655465
20
100.47759825675838
30
0
0
LINE
5
222
100
AcDbEntity
8
0
100
AcDbLine
10
-106.16367742176165
20
97.246539930398356
30
0
11
-119.46363915373752
21
99.11521523439454
31
0
0
ARC
5
223
100
AcDbEntity
8
0
100
AcDbCircle
10
-122.24635288819657
20
79.309748709417406
30
0
40
19.999999999998419
210
0
220
-0
230
1
100
AcDbArc
50
82.002164739282719
51
90.000000000000398
0
LINE
5
224
100
AcDbEntity
8
0
100
AcDbLine
10
-122.24635288819671
20
99.309748709415828
30
0
11
-148.94089428065402
21
99.309748709415828
31
0
0
ARC
5
225
100
AcDbEntity
8
0
100
AcDbCircle
10
-148.94089428065422
20
79.309748709418443
30
0
40
19.999999999997389
210
0
220
-0
230
1
100
AcDbArc
50
89.999999999999417
51
98.002164739283458
0
LINE
5
226
100
AcDbEntity
8
0
100
AcDbLine
10
-151.72510458062416
20
99.115004905828457
30
0
11
-164.98567965852391
21
97.250841708479641
31
0
0
SPLINE
5
227
100
AcDbEntity
8
0
100
AcDbSpline
70
0
71
3
72
16
73
12
74
0
42
0.000000001
43
0.0000000001
44
0.0000000001
40
-0.48997249118627739
40
-0.48997249118627739
40
-0.48997249118627739
40
-0.48997249118627739
40
-0.35677743317462168
40
-0.35677743317462168
40
-0.24977267189638119
40
-0.24977267189638119
40
-0.16888326316318383
40
-0.16888326316318383
40
-0.093447611961452876
40
-0.093447611961452876
40
0
40
0
40
0
40
0
10
-167.86346825609499
20
100.48168258783654
30
0
10
-167.80176380369309
20
100.04275292498308
30
0
10
-167.71053300041712
20
99.589802718295999
30
0
10
-167.46423640071302
20
98.828589884800294
30
0
10
-167.31860627360402
20
98.488734407279622
30
0
10
-166.97383772060462
20
97.965729620331174
30
0
10
-166.79525738488752
20
97.7627196653346
30
0
10
-166.37734978964255
20
97.451127389472106
30
0
10
-166.15441222407168
20
97.345645680353471
30
0
10
-165.60801048618947
20
97.209283596834965
30
0
10
-165.29413864116381
20
97.207478741191196
30
0
10
-164.98567965852391
20
97.250841708479641
30
0
0
ARC
5
228
100
AcDbEntity
8
0
100
AcDbCircle
10
-171.4284143714423
20
99.980524733842898
30
0
40
3.5999999999929799
210
0
220
-0
230
1
100
AcDbArc
50
8.0021647392829696
51
188.00216473928305
0
LWPOLYLINE
5
229
100
AcDbEntity
8
0
100
AcDbPolyline
90
20
70
1
43
0.0
10
-125.2882308933401
20
75.353439930392071
42
-0.41426843756320181
10
-125.71388439110902
20
75.918163558220925
10
-123.89113010955154
20
88.889942244390909
42
-0.41420936749927412
10
-123.32642659948208
20
89.315503972706622
10
-91.488697912506908
20
84.842229648191505
42
-0.4142343982379243
10
-91.063134042883974
20
84.277489919063441
10
-92.886830169092718
20
71.304357573336361
42
-0.41427854098631767
10
-93.451674789241054
20
70.878844379684949
10
-94.502848119962096
20
71.02685072645447
42
0.20364811674686056
10
-95.664396745538184
20
70.715464251131493
42
-0.20366396891032421
10
-96.901591971665155
20
70.383838900220852
10
-98.896474581263064
20
70.664844402803354
42
-0.20343670031829253
10
-99.99307793438831
20
71.324177293937154
42
0.20352501698444023
10
-101.02322961033566
20
71.943318242813518
10
-117.71484055079655
20
74.288777366343794
42
0.20349213363736263
10
-118.87557687494846
20
73.97763504583385
42
-0.20356626006039721
10
-120.11226991515358
20
73.646320766125868
10
-122.10945916391596
20
73.927540163863796
42
-0.20342840277552821
10
-123.20606778728128
20
74.586771051031221
42
0.2035513896748137
10
-124.236427169183
20
75.205844662379008
0
LWPOLYLINE
5
230
100
AcDbEntity
8
0
100
AcDbPolyline
90
8
70
1
43
0.0
10
-145.22355949967596
20
70.450297412052066
10
-158.19629284829739
20
68.627059462702022
42
0.41424347217560958
10
-158.62183155110063
20
68.062287056237963
10
-156.79718737859707
20
55.089160561233726
42
0.41421349829664206
10
-156.23242218917935
20
54.663672404598785
10
-143.26062455524797
20
56.488126781475323
42
0.41419669678080095
10
-142.83513228111727
20
57.052863475091442
10
-144.65884073893079
20
70.024773542569179
42
0.414200582715754
0
ENDSEC
0
SECTION
2
OBJECTS
0
DICTIONARY
5
C
100
AcDbDictionary
3
ACAD_GROUP
350
D
3
ACAD_MLINESTYLE
350
17
0
DICTIONARY
5
D
100
AcDbDictionary
0
DICTIONARY
5
1A
330
C
100
AcDbDictionary
0
DICTIONARY
5
17
100
AcDbDictionary
0
ENDSEC
0
EOF
